<?xml version="1.0" encoding="UTF-8" standalone="no"?>
<!DOCTYPE svg PUBLIC "-//W3C//DTD SVG 1.1//EN" "http://www.w3.org/Graphics/SVG/1.1/DTD/svg11.dtd">
<svg width="100%" height="100%" viewBox="0 0 1167 750" version="1.1" xmlns="http://www.w3.org/2000/svg" xmlns:xlink="http://www.w3.org/1999/xlink" xml:space="preserve" xmlns:serif="http://www.serif.com/" style="fill-rule:evenodd;clip-rule:evenodd;stroke-linejoin:round;stroke-miterlimit:2;">
    <g transform="matrix(4.16667,0,0,4.16667,-2133.33,-129.167)">
        <g transform="matrix(1,0,0,1,38.9265,12.9605)">
            <path d="M570.438,137.201C570.438,146.908 578.307,154.776 588.013,154.776C597.72,154.776 605.588,146.908 605.588,137.201C605.588,127.495 597.72,119.626 588.013,119.626C578.307,119.626 570.438,127.495 570.438,137.201ZM563.864,137.201C563.864,123.864 574.676,113.052 588.013,113.052C601.351,113.052 612.162,123.864 612.162,137.201C612.162,150.539 601.351,161.35 588.013,161.35C574.676,161.35 563.864,150.539 563.864,137.201Z" style="fill:white;fill-rule:nonzero;"/>
        </g>
        <g transform="matrix(1,0,0,1,38.9265,12.9605)">
            <rect x="560.535" y="54.729" width="6.689" height="105.725" style="fill:white;fill-rule:nonzero;"/>
        </g>
        <g transform="matrix(1,0,0,1,38.9265,12.9605)">
            <path d="M518.392,137.201C518.392,146.782 523.967,154.549 531.831,154.549C539.695,154.549 544.971,146.782 544.971,137.201C544.971,127.62 539.695,119.853 531.831,119.853C523.967,119.853 518.392,127.62 518.392,137.201ZM512.011,137.201C512.011,123.864 520.884,113.052 531.831,113.052C542.778,113.052 551.651,123.864 551.651,137.201C551.651,150.539 542.778,161.35 531.831,161.35C520.884,161.35 512.011,150.539 512.011,137.201Z" style="fill:white;fill-rule:nonzero;"/>
        </g>
        <g transform="matrix(1,0,0,1,38.9265,12.9605)">
            <path d="M649.241,135.157L653.651,137.615C652.019,142.338 650.532,145.397 647.344,149.818L658.038,160.27L651.254,160.27L644.065,153.712C638.918,159.199 633.752,160.895 626.824,160.895C622.707,160.895 619.38,159.842 616.846,157.735C614.335,155.606 613.08,152.828 613.08,149.401C613.08,143.035 617.422,138.105 626.108,134.608C621.74,130.418 619.557,126.645 619.557,123.288C619.557,120.325 620.762,117.825 623.172,115.787C625.581,113.727 628.543,112.698 632.057,112.697C635.371,112.697 638.107,113.658 640.266,115.579C642.45,117.478 643.542,119.862 643.542,122.732C643.542,127.871 639.863,132.154 632.509,135.58L643.48,146.096C645.864,142.808 647.785,139.162 649.241,135.157ZM630.046,131.264C635.253,129.266 637.855,126.654 637.856,123.428C637.856,121.871 637.26,120.57 636.068,119.525C634.875,118.48 633.375,117.958 631.567,117.958C629.698,117.958 628.128,118.489 626.857,119.552C625.605,120.597 624.979,121.889 624.979,123.428C624.979,125.812 626.667,128.423 630.046,131.264ZM640.318,149.559L628.721,138.411C625.315,139.761 622.814,141.221 621.22,142.792C619.648,144.363 618.861,146.287 618.861,148.562C618.861,150.899 619.636,152.722 621.187,154.03C622.76,155.339 624.932,155.994 627.706,155.994C632.292,155.994 636.495,153.849 640.318,149.559Z" style="fill:white;"/>
        </g>
        <g transform="matrix(1,0,0,1,38.9265,12.9605)">
            <rect x="547.773" y="54.729" width="6.69" height="105.725" style="fill:white;fill-rule:nonzero;"/>
        </g>
        <g transform="matrix(1,0,0,1,38.9265,12.9605)">
            <path d="M672.412,137.201C672.412,146.908 680.281,154.776 689.987,154.776C699.693,154.776 707.562,146.908 707.562,137.201C707.562,127.495 699.693,119.626 689.987,119.626C680.281,119.626 672.412,127.495 672.412,137.201ZM665.838,137.201C665.838,123.864 676.65,113.052 689.987,113.052C703.324,113.052 714.136,123.864 714.136,137.201C714.136,150.539 703.324,161.35 689.987,161.35C676.65,161.35 665.838,150.539 665.838,137.201Z" style="fill:white;fill-rule:nonzero;"/>
        </g>
        <g transform="matrix(1,0,0,1,38.9265,12.9605)">
            <rect x="662.508" y="54.729" width="6.69" height="105.725" style="fill:white;fill-rule:nonzero;"/>
        </g>
    </g>
</svg>
